# xmcd
#
# Track frame offsets:
#	150
#	10247
#	23100
#	34131
#	46122
#	57100
#	69800
#	81209
#	94854
#	108173
#	120343
#	133032
#	145146
#	160312
#	173708
#	188992
#	205672
#	218704
#	233766
#	254161
#	266937
#	288156
#	306210
#	319437
#	332930
#
# Disc length: 4583 seconds
#
# Revision: 3
# Processed by: cddbd v1.5.2PL0 Copyright (c) Steve Scherf et al.
# Submitted via: EZCDAudioConverter 3.1.7.1
#
DISCID=6611e519
DTITLE=Conway Twitty - Number 1's
DYEAR=2004
DGENRE=Country
TTITLE0=It's Only Make Believe
TTITLE1=Next In Line
TTITLE2=Hello Darlin'
TTITLE3=After The Fire Is Gone (Duet with Loretta Lynn)
TTITLE4=Lead Me On (Duet with Loretta Lynn)
TTITLE5=I Can't Stop Loving You
TTITLE6=Louisiana Woman, Mississippi Man (Duet with Loretta Lynn)
TTITLE7=You've Never Been This Far Before
TTITLE8=There's A Honky Tonk Angel (Who'll Take Me Back In)
TTITLE9=As Soon As I Hang Up The Phone (Duet with Loretta Lynn)
TTITLE10=I See The Want In Your Eyes
TTITLE11=Linda On My Mind
TTITLE12=Touch The Hand
TTITLE13=After All The Good Is Gone
TTITLE14=Play, Guitar, Play
TTITLE15=Don't Take It Away
TTITLE16=Happy Birthday Darlin'
TTITLE17=I'd Love To Lay You Down
TTITLE18=Rest Your Love On Me
TTITLE19=Tight Fittin' Jeans
TTITLE20=Red Neckin' Love Makin' Night
TTITLE21=The Clown
TTITLE22=Slow Hand
TTITLE23=I Don't Know A Thing About Love (The Moon Song)
TTITLE24=Desperado Love
EXTD=
EXTT0=
EXTT1=
EXTT2=
EXTT3=
EXTT4=
EXTT5=
EXTT6=
EXTT7=
EXTT8=
EXTT9=
EXTT10=
EXTT11=
EXTT12=
EXTT13=
EXTT14=
EXTT15=
EXTT16=
EXTT17=
EXTT18=
EXTT19=
EXTT20=
EXTT21=
EXTT22=
EXTT23=
EXTT24=
PLAYORDER=
